<svg id="Layer_1" data-name="Layer 1" xmlns="http://www.w3.org/2000/svg" viewBox="0 100 800 400"><defs><style>.cls-1{fill:#1d2954;}.cls-2{fill:#537eba;}</style></defs><path class="cls-1" d="M289.4,324V244.29h46.45v14H306.36v20.13h23.29v13.8H306.36V324Z"/><path class="cls-1" d="M359.26,244.29V310h30.38V324H342.17V244.29Z"/><path class="cls-1" d="M436.42,244.29,459.33,324H442.12l-4.94-18.36H413.89L408.82,324H393l22.91-79.75Zm-18.86,48h15.95l-7.6-28.49h-.5Z"/><path class="cls-1" d="M471.15,324v-65.7H450.9v-14h57.85v14H488.11V324Z"/><path class="cls-1" d="M532.16,244.29V324H515.07V244.29Z"/><path class="cls-1" d="M580.76,324c-1.64-3.29-2.53-7.85-3-17.72-.51-8.11-2.66-11.78-10.26-11.78h-9.24V324H541.52V244.29h27.22c19.36,0,28.48,9.49,28.48,24.43,0,11.14-6.46,18-13.93,19.75,7.47,2.28,10.26,7.34,11,17.09.76,10.63,1.26,14.81,3.67,18.48Zm-12.65-42.79c8.6,0,12.4-3.67,12.4-11.52,0-7.34-3.8-11.77-12.4-11.77h-9.88v23.29Z"/><path class="cls-1" d="M662.4,286.65c0,23.67-10,38.73-30.38,38.73s-30.38-15.06-30.38-38.73v-5.07c0-23.67,10-38.73,30.38-38.73s30.38,15.06,30.38,38.73Zm-17.47-8.48C644.93,264,640.63,257,632,257s-12.91,7-12.91,21.14v11.89c0,14.18,4.31,21.14,12.91,21.14s12.91-7,12.91-21.14Z"/><path class="cls-1" d="M710.24,291.51h.51V244.29h15.57V324H713l-27.34-50.26h-.51V324H669.49V244.29h16.07Z"/><path class="cls-1" d="M292.68,343.78v23.81H289.4V343.78Z"/><path class="cls-1" d="M348.86,362V343.78h3.06v23.81h-2.61l-13.83-19.13v19.13h-3.06V343.78h3.4Z"/><path class="cls-1" d="M391.25,358.89c.18,4.35,3.17,6.58,7.18,6.58,3.55,0,5.78-1.51,5.78-4.12,0-2.19-1.44-3.25-4.53-3.85l-4.73-.91c-3.52-.68-5.93-2.57-5.93-6.28,0-4.15,3.28-7,8.5-7,6,0,9.41,3.18,9.45,8.54l-3,.15c-.11-3.93-2.49-6.16-6.42-6.16-3.44,0-5.37,1.63-5.37,4.28,0,2.34,1.55,3.09,4.31,3.62l4.31.83c4.35.84,6.54,2.73,6.54,6.55,0,4.38-3.78,6.91-8.92,6.91-5.86,0-10.13-3.21-10.13-9Z"/><path class="cls-1" d="M450.08,367.59V346.5h-8.66v-2.72h20.71v2.72h-8.8v21.09Z"/><path class="cls-1" d="M501.76,343.78v23.81h-3.29V343.78Z"/><path class="cls-1" d="M546.76,367.59V346.5h-8.65v-2.72h20.71v2.72H550v21.09Z"/><path class="cls-1" d="M594.85,358.48v-14.7h3.25v14.74c0,4.53,2.23,6.76,6.39,6.76s6.47-2.23,6.47-6.73V343.78h3.21v14.7c0,6.95-4.31,9.56-9.68,9.56S594.85,365.43,594.85,358.48Z"/><path class="cls-1" d="M658.82,367.59V346.5h-8.65v-2.72h20.71v2.72h-8.81v21.09Z"/><path class="cls-1" d="M726.32,367.59h-17V343.78H726v2.72H712.52V354h10.7v2.68h-10.7v8.21h13.8Z"/><path class="cls-1" d="M63.36,244.29v123h46.83a77.19,77.19,0,0,1,.11-123"/><path class="cls-1" d="M250.37,244.29v123H203.54a77.19,77.19,0,0,0-.11-123"/><circle class="cls-2" cx="156.42" cy="305.8" r="52.57"/></svg>